<svg xmlns="http://www.w3.org/2000/svg" style="display: none;"><symbol 
id="facebook" viewBox="0 0 24 24"><title>facebook</title><path d="m15.997 3.985h2.191v-3.816c-.378-.052-1.678-.169-3.192-.169-3.159 0-5.323 1.987-5.323 5.639v3.361h-3.486v4.266h3.486v10.734h4.274v-10.733h3.345l.531-4.266h-3.877v-2.939c.001-1.233.333-2.077 2.051-2.077z"/></symbol><symbol 
id="linkedin" viewBox="0 0 24 24"><title>linkedin</title><path d="m23.994 24v-.001h.006v-8.802c0-4.306-.927-7.623-5.961-7.623-2.42 0-4.044 1.328-4.707 2.587h-.07v-2.185h-4.773v16.023h4.97v-7.934c0-2.089.396-4.109 2.983-4.109 2.549 0 2.587 2.384 2.587 4.243v7.801z"/><path d="m.396 7.977h4.976v16.023h-4.976z"/><path d="m2.882 0c-1.591 0-2.882 1.291-2.882 2.882s1.291 2.909 2.882 2.909 2.882-1.318 2.882-2.909c-.001-1.591-1.292-2.882-2.882-2.882z"/></symbol><symbol id="google-plus" viewBox="0 -91 512 512"><title>google-plus</title><path d="m166 60c34.667969 0 66.027344 17.789062 84 42.300781l42.597656-42.902343c-25.476562-33.128907-74.511718-59.398438-126.597656-59.398438-91.199219 0-166 73.800781-166 165s74.800781 165 166 165c75.601562 0 139.199219-50.699219 158.699219-120 4.199219-14.402344 6.300781-29.402344 6.300781-45v-15h-150v59.988281h79.5c-16.5 35.402344-52.800781 60.011719-94.5 60.011719-57.898438 0-106-47.101562-106-105s48.101562-105 106-105zm0 0"/><path d="m466 90h-60v45h-45v60h45v45h60v-45h46v-60h-46zm0 0"/></symbol></svg>