<svg xmlns="http://www.w3.org/2000/svg" style="display: none;"><symbol id="mail" viewBox="0 0 512 512"><title>mail</title><path d="M485.743,85.333H26.257C11.815,85.333,0,97.148,0,111.589V400.41c0,14.44,11.815,26.257,26.257,26.257h459.487 c14.44,0,26.257-11.815,26.257-26.257V111.589C512,97.148,500.185,85.333,485.743,85.333z M475.89,105.024L271.104,258.626 c-3.682,2.802-9.334,4.555-15.105,4.529c-5.77,0.026-11.421-1.727-15.104-4.529L36.109,105.024H475.89z M366.5,268.761 l111.59,137.847c0.112,0.138,0.249,0.243,0.368,0.368H33.542c0.118-0.131,0.256-0.23,0.368-0.368L145.5,268.761 c3.419-4.227,2.771-10.424-1.464-13.851c-4.227-3.419-10.424-2.771-13.844,1.457l-110.5,136.501V117.332l209.394,157.046 c7.871,5.862,17.447,8.442,26.912,8.468c9.452-0.02,19.036-2.6,26.912-8.468l209.394-157.046v275.534L381.807,256.367 c-3.42-4.227-9.623-4.877-13.844-1.457C363.729,258.329,363.079,264.534,366.5,268.761z"/></symbol><symbol id="user" viewBox="0 0 512 512"><title>user</title><path d="m437.019531 74.980469c-48.351562-48.351563-112.640625-74.980469-181.019531-74.980469-68.382812 0-132.667969 26.628906-181.019531 74.980469-48.351563 48.351562-74.980469 112.636719-74.980469 181.019531 0 68.378906 26.628906 132.667969 74.980469 181.019531 48.351562 48.351563 112.636719 74.980469 181.019531 74.980469 68.378906 0 132.667969-26.628906 181.019531-74.980469 48.351563-48.351562 74.980469-112.640625 74.980469-181.019531 0-68.382812-26.628906-132.667969-74.980469-181.019531zm-308.679687 367.40625c10.707031-61.648438 64.128906-107.121094 127.660156-107.121094 63.535156 0 116.953125 45.472656 127.660156 107.121094-36.347656 24.972656-80.324218 39.613281-127.660156 39.613281s-91.3125-14.640625-127.660156-39.613281zm46.261718-218.519531c0-44.886719 36.515626-81.398438 81.398438-81.398438s81.398438 36.515625 81.398438 81.398438c0 44.882812-36.515626 81.398437-81.398438 81.398437s-81.398438-36.515625-81.398438-81.398437zm235.042969 197.710937c-8.074219-28.699219-24.109375-54.738281-46.585937-75.078125-13.789063-12.480469-29.484375-22.328125-46.359375-29.269531 30.5-19.894531 50.703125-54.3125 50.703125-93.363281 0-61.425782-49.976563-111.398438-111.402344-111.398438s-111.398438 49.972656-111.398438 111.398438c0 39.050781 20.203126 73.46875 50.699219 93.363281-16.871093 6.941406-32.570312 16.785156-46.359375 29.265625-22.472656 20.339844-38.511718 46.378906-46.585937 75.078125-44.472657-41.300781-72.355469-100.238281-72.355469-165.574219 0-124.617188 101.382812-226 226-226s226 101.382812 226 226c0 65.339844-27.882812 124.277344-72.355469 165.578125zm0 0"/></symbol><symbol id="padlock" viewBox="0 0 24 24"><title>padlock</title><path d="m18.75 24h-13.5c-1.24 0-2.25-1.009-2.25-2.25v-10.5c0-1.241 1.01-2.25 2.25-2.25h13.5c1.24 0 2.25 1.009 2.25 2.25v10.5c0 1.241-1.01 2.25-2.25 2.25zm-13.5-13.5c-.413 0-.75.336-.75.75v10.5c0 .414.337.75.75.75h13.5c.413 0 .75-.336.75-.75v-10.5c0-.414-.337-.75-.75-.75z"/><path d="m17.25 10.5c-.414 0-.75-.336-.75-.75v-3.75c0-2.481-2.019-4.5-4.5-4.5s-4.5 2.019-4.5 4.5v3.75c0 .414-.336.75-.75.75s-.75-.336-.75-.75v-3.75c0-3.309 2.691-6 6-6s6 2.691 6 6v3.75c0 .414-.336.75-.75.75z"/><path d="m12 17c-1.103 0-2-.897-2-2s.897-2 2-2 2 .897 2 2-.897 2-2 2zm0-2.5c-.275 0-.5.224-.5.5s.225.5.5.5.5-.224.5-.5-.225-.5-.5-.5z"/><path d="m12 20c-.414 0-.75-.336-.75-.75v-2.75c0-.414.336-.75.75-.75s.75.336.75.75v2.75c0 .414-.336.75-.75.75z"/></symbol></svg>